<mxfile host="app.diagrams.net" agent="Mozilla/5.0 (Windows NT 10.0; Win64; x64) AppleWebKit/537.36 (KHTML, like Gecko) Chrome/127.0.0.0 Safari/537.36 OPR/113.0.0.0" version="24.7.7">
  <diagram name="Page-1" id="Fk_O21LcfUNEBpKHQNCr">
    <mxGraphModel dx="1009" dy="547" grid="1" gridSize="10" guides="1" tooltips="1" connect="1" arrows="1" fold="1" page="1" pageScale="1" pageWidth="850" pageHeight="1100" math="0" shadow="0">
      <root>
        <mxCell id="0" />
        <mxCell id="1" parent="0" />
        <mxCell id="oEjK3gBVX5ZYHdjVoAei-1" value="Component" style="swimlane;fontStyle=1;align=center;verticalAlign=top;childLayout=stackLayout;horizontal=1;startSize=26;horizontalStack=0;resizeParent=1;resizeParentMax=0;resizeLast=0;collapsible=1;marginBottom=0;whiteSpace=wrap;html=1;" vertex="1" parent="1">
          <mxGeometry x="440" y="200" width="310" height="86" as="geometry" />
        </mxCell>
        <mxCell id="oEjK3gBVX5ZYHdjVoAei-2" value="+type:string" style="text;strokeColor=none;fillColor=none;align=left;verticalAlign=top;spacingLeft=4;spacingRight=4;overflow=hidden;rotatable=0;points=[[0,0.5],[1,0.5]];portConstraint=eastwest;whiteSpace=wrap;html=1;" vertex="1" parent="oEjK3gBVX5ZYHdjVoAei-1">
          <mxGeometry y="26" width="310" height="26" as="geometry" />
        </mxCell>
        <mxCell id="oEjK3gBVX5ZYHdjVoAei-3" value="" style="line;strokeWidth=1;fillColor=none;align=left;verticalAlign=middle;spacingTop=-1;spacingLeft=3;spacingRight=3;rotatable=0;labelPosition=right;points=[];portConstraint=eastwest;strokeColor=inherit;" vertex="1" parent="oEjK3gBVX5ZYHdjVoAei-1">
          <mxGeometry y="52" width="310" height="8" as="geometry" />
        </mxCell>
        <mxCell id="oEjK3gBVX5ZYHdjVoAei-4" value="virtual execute(Entity&amp;amp;,Entity&amp;amp;)Target,self" style="text;strokeColor=none;fillColor=none;align=left;verticalAlign=top;spacingLeft=4;spacingRight=4;overflow=hidden;rotatable=0;points=[[0,0.5],[1,0.5]];portConstraint=eastwest;whiteSpace=wrap;html=1;" vertex="1" parent="oEjK3gBVX5ZYHdjVoAei-1">
          <mxGeometry y="60" width="310" height="26" as="geometry" />
        </mxCell>
        <mxCell id="oEjK3gBVX5ZYHdjVoAei-5" value="Use" style="swimlane;fontStyle=1;align=center;verticalAlign=top;childLayout=stackLayout;horizontal=1;startSize=26;horizontalStack=0;resizeParent=1;resizeParentMax=0;resizeLast=0;collapsible=1;marginBottom=0;whiteSpace=wrap;html=1;" vertex="1" parent="1">
          <mxGeometry x="440" y="320" width="310" height="60" as="geometry" />
        </mxCell>
        <mxCell id="oEjK3gBVX5ZYHdjVoAei-7" value="" style="line;strokeWidth=1;fillColor=none;align=left;verticalAlign=middle;spacingTop=-1;spacingLeft=3;spacingRight=3;rotatable=0;labelPosition=right;points=[];portConstraint=eastwest;strokeColor=inherit;" vertex="1" parent="oEjK3gBVX5ZYHdjVoAei-5">
          <mxGeometry y="26" width="310" height="8" as="geometry" />
        </mxCell>
        <mxCell id="oEjK3gBVX5ZYHdjVoAei-8" value="void execute(Entity&amp;amp;,Entity&amp;amp;)Target,self override" style="text;strokeColor=none;fillColor=none;align=left;verticalAlign=top;spacingLeft=4;spacingRight=4;overflow=hidden;rotatable=0;points=[[0,0.5],[1,0.5]];portConstraint=eastwest;whiteSpace=wrap;html=1;" vertex="1" parent="oEjK3gBVX5ZYHdjVoAei-5">
          <mxGeometry y="34" width="310" height="26" as="geometry" />
        </mxCell>
        <mxCell id="oEjK3gBVX5ZYHdjVoAei-9" value="Open" style="swimlane;fontStyle=1;align=center;verticalAlign=top;childLayout=stackLayout;horizontal=1;startSize=26;horizontalStack=0;resizeParent=1;resizeParentMax=0;resizeLast=0;collapsible=1;marginBottom=0;whiteSpace=wrap;html=1;" vertex="1" parent="1">
          <mxGeometry x="90" y="320" width="310" height="60" as="geometry" />
        </mxCell>
        <mxCell id="oEjK3gBVX5ZYHdjVoAei-10" value="" style="line;strokeWidth=1;fillColor=none;align=left;verticalAlign=middle;spacingTop=-1;spacingLeft=3;spacingRight=3;rotatable=0;labelPosition=right;points=[];portConstraint=eastwest;strokeColor=inherit;" vertex="1" parent="oEjK3gBVX5ZYHdjVoAei-9">
          <mxGeometry y="26" width="310" height="8" as="geometry" />
        </mxCell>
        <mxCell id="oEjK3gBVX5ZYHdjVoAei-11" value="void execute(Entity&amp;amp;,Entity&amp;amp;)Target,self override" style="text;strokeColor=none;fillColor=none;align=left;verticalAlign=top;spacingLeft=4;spacingRight=4;overflow=hidden;rotatable=0;points=[[0,0.5],[1,0.5]];portConstraint=eastwest;whiteSpace=wrap;html=1;" vertex="1" parent="oEjK3gBVX5ZYHdjVoAei-9">
          <mxGeometry y="34" width="310" height="26" as="geometry" />
        </mxCell>
        <mxCell id="oEjK3gBVX5ZYHdjVoAei-12" value="" style="endArrow=block;dashed=1;endFill=0;endSize=12;html=1;rounded=0;entryX=-0.001;entryY=1.062;entryDx=0;entryDy=0;entryPerimeter=0;" edge="1" parent="1" source="oEjK3gBVX5ZYHdjVoAei-9" target="oEjK3gBVX5ZYHdjVoAei-4">
          <mxGeometry width="160" relative="1" as="geometry">
            <mxPoint x="340" y="180" as="sourcePoint" />
            <mxPoint x="500" y="180" as="targetPoint" />
          </mxGeometry>
        </mxCell>
        <mxCell id="oEjK3gBVX5ZYHdjVoAei-13" value="" style="endArrow=block;dashed=1;endFill=0;endSize=12;html=1;rounded=0;entryX=0.074;entryY=1.031;entryDx=0;entryDy=0;entryPerimeter=0;" edge="1" parent="1" target="oEjK3gBVX5ZYHdjVoAei-4">
          <mxGeometry width="160" relative="1" as="geometry">
            <mxPoint x="460" y="318" as="sourcePoint" />
            <mxPoint x="500" y="300" as="targetPoint" />
          </mxGeometry>
        </mxCell>
        <mxCell id="oEjK3gBVX5ZYHdjVoAei-14" value="map&amp;lt;string,Component&amp;gt;&lt;div&gt;(this would be stored in the entity)&lt;/div&gt;" style="html=1;whiteSpace=wrap;" vertex="1" parent="1">
          <mxGeometry x="130" y="200" width="250" height="50" as="geometry" />
        </mxCell>
        <mxCell id="oEjK3gBVX5ZYHdjVoAei-19" value="ComponentManager" style="swimlane;fontStyle=1;align=center;verticalAlign=top;childLayout=stackLayout;horizontal=1;startSize=26;horizontalStack=0;resizeParent=1;resizeParentMax=0;resizeLast=0;collapsible=1;marginBottom=0;whiteSpace=wrap;html=1;" vertex="1" parent="1">
          <mxGeometry x="265" y="40" width="425" height="86" as="geometry" />
        </mxCell>
        <mxCell id="oEjK3gBVX5ZYHdjVoAei-20" value="+ field: type" style="text;strokeColor=none;fillColor=none;align=left;verticalAlign=top;spacingLeft=4;spacingRight=4;overflow=hidden;rotatable=0;points=[[0,0.5],[1,0.5]];portConstraint=eastwest;whiteSpace=wrap;html=1;" vertex="1" parent="oEjK3gBVX5ZYHdjVoAei-19">
          <mxGeometry y="26" width="425" height="26" as="geometry" />
        </mxCell>
        <mxCell id="oEjK3gBVX5ZYHdjVoAei-21" value="" style="line;strokeWidth=1;fillColor=none;align=left;verticalAlign=middle;spacingTop=-1;spacingLeft=3;spacingRight=3;rotatable=0;labelPosition=right;points=[];portConstraint=eastwest;strokeColor=inherit;" vertex="1" parent="oEjK3gBVX5ZYHdjVoAei-19">
          <mxGeometry y="52" width="425" height="8" as="geometry" />
        </mxCell>
        <mxCell id="oEjK3gBVX5ZYHdjVoAei-22" value="+ void onStart(Adventure&amp;amp;)&amp;nbsp; &amp;nbsp;(check through all locations, checks&amp;nbsp;" style="text;strokeColor=none;fillColor=none;align=left;verticalAlign=top;spacingLeft=4;spacingRight=4;overflow=hidden;rotatable=0;points=[[0,0.5],[1,0.5]];portConstraint=eastwest;whiteSpace=wrap;html=1;" vertex="1" parent="oEjK3gBVX5ZYHdjVoAei-19">
          <mxGeometry y="60" width="425" height="26" as="geometry" />
        </mxCell>
        <mxCell id="oEjK3gBVX5ZYHdjVoAei-23" value="Add array of strings in the json file for the entities" style="text;html=1;align=center;verticalAlign=middle;whiteSpace=wrap;rounded=0;" vertex="1" parent="1">
          <mxGeometry x="310" y="430" width="185" height="30" as="geometry" />
        </mxCell>
      </root>
    </mxGraphModel>
  </diagram>
</mxfile>
